<svg width="154" height="46" viewBox="0 0 154 46" fill="none" xmlns="http://www.w3.org/2000/svg">
<path d="M30.57 28.07V59H25.47C24.41 59 23.73 58.52 23.43 57.56L22.89 55.4C22.27 56 21.63 56.55 20.97 57.05C20.31 57.55 19.6 57.98 18.84 58.34C18.1 58.7 17.29 58.98 16.41 59.18C15.55 59.38 14.61 59.48 13.59 59.48C11.91 59.48 10.41 59.19 9.09 58.61C7.79 58.03 6.7 57.22 5.82 56.18C4.94 55.14 4.27 53.9 3.81 52.46C3.35 51.02 3.12 49.44 3.12 47.72V28.07H11.4V47.72C11.4 49.44 11.79 50.78 12.57 51.74C13.37 52.68 14.55 53.15 16.11 53.15C17.27 53.15 18.36 52.9 19.38 52.4C20.4 51.88 21.37 51.18 22.29 50.3V28.07H30.57ZM45.6844 31.1C46.2644 30.58 46.8644 30.11 47.4844 29.69C48.1244 29.25 48.7944 28.88 49.4944 28.58C50.2144 28.26 50.9744 28.02 51.7744 27.86C52.5944 27.68 53.4744 27.59 54.4144 27.59C56.0944 27.59 57.5844 27.88 58.8844 28.46C60.1844 29.04 61.2744 29.85 62.1544 30.89C63.0544 31.93 63.7244 33.17 64.1644 34.61C64.6244 36.05 64.8544 37.63 64.8544 39.35V59H56.6044V39.35C56.6044 37.63 56.2044 36.3 55.4044 35.36C54.6044 34.4 53.4244 33.92 51.8644 33.92C50.7044 33.92 49.6144 34.17 48.5944 34.67C47.5744 35.17 46.6044 35.87 45.6844 36.77V59H37.4044V14.27H45.6844V31.1ZM87.6173 46.07C85.5973 46.17 83.9173 46.35 82.5773 46.61C81.2373 46.85 80.1673 47.17 79.3673 47.57C78.5873 47.97 78.0273 48.43 77.6873 48.95C77.3673 49.45 77.2073 50 77.2073 50.6C77.2073 51.8 77.5373 52.65 78.1973 53.15C78.8773 53.65 79.8173 53.9 81.0173 53.9C82.3973 53.9 83.5873 53.66 84.5873 53.18C85.6073 52.68 86.6173 51.91 87.6173 50.87V46.07ZM70.7573 32.36C72.5773 30.72 74.5873 29.5 76.7873 28.7C78.9873 27.88 81.3673 27.47 83.9273 27.47C85.7673 27.47 87.4073 27.77 88.8473 28.37C90.3073 28.97 91.5373 29.81 92.5373 30.89C93.5573 31.95 94.3373 33.22 94.8773 34.7C95.4173 36.18 95.6873 37.8 95.6873 39.56V59H91.9073C91.1273 59 90.5273 58.89 90.1073 58.67C89.7073 58.45 89.3773 57.99 89.1173 57.29L88.4573 55.31C87.6773 55.99 86.9173 56.59 86.1773 57.11C85.4573 57.63 84.7073 58.07 83.9273 58.43C83.1473 58.77 82.3073 59.03 81.4073 59.21C80.5273 59.39 79.5373 59.48 78.4373 59.48C77.0773 59.48 75.8373 59.3 74.7173 58.94C73.5973 58.58 72.6273 58.05 71.8073 57.35C71.0073 56.63 70.3873 55.74 69.9473 54.68C69.5073 53.62 69.2873 52.4 69.2873 51.02C69.2873 49.88 69.5773 48.74 70.1573 47.6C70.7373 46.46 71.7273 45.43 73.1273 44.51C74.5473 43.57 76.4273 42.8 78.7673 42.2C81.1273 41.58 84.0773 41.23 87.6173 41.15V39.56C87.6173 37.62 87.2073 36.2 86.3873 35.3C85.5673 34.38 84.3873 33.92 82.8473 33.92C81.7073 33.92 80.7573 34.06 79.9973 34.34C79.2373 34.6 78.5673 34.89 77.9873 35.21C77.4273 35.51 76.8973 35.8 76.3973 36.08C75.8973 36.34 75.3173 36.47 74.6573 36.47C74.0773 36.47 73.5873 36.33 73.1873 36.05C72.8073 35.75 72.4873 35.4 72.2273 35L70.7573 32.36ZM121.38 34.43C121.16 34.77 120.93 35.02 120.69 35.18C120.47 35.32 120.16 35.39 119.76 35.39C119.36 35.39 118.95 35.29 118.53 35.09C118.11 34.89 117.64 34.68 117.12 34.46C116.6 34.22 116 34 115.32 33.8C114.66 33.6 113.89 33.5 113.01 33.5C111.67 33.5 110.63 33.78 109.89 34.34C109.15 34.88 108.78 35.6 108.78 36.5C108.78 37.12 108.99 37.64 109.41 38.06C109.83 38.48 110.38 38.85 111.06 39.17C111.76 39.47 112.55 39.76 113.43 40.04C114.31 40.3 115.21 40.59 116.13 40.91C117.07 41.23 117.98 41.6 118.86 42.02C119.74 42.44 120.52 42.97 121.2 43.61C121.9 44.23 122.46 44.99 122.88 45.89C123.3 46.77 123.51 47.84 123.51 49.1C123.51 50.6 123.23 51.99 122.67 53.27C122.13 54.53 121.33 55.62 120.27 56.54C119.21 57.46 117.89 58.18 116.31 58.7C114.73 59.22 112.91 59.48 110.85 59.48C109.79 59.48 108.74 59.38 107.7 59.18C106.66 59 105.67 58.74 104.73 58.4C103.79 58.04 102.91 57.63 102.09 57.17C101.27 56.71 100.56 56.21 99.9605 55.67L101.88 52.58C102.1 52.22 102.37 51.94 102.69 51.74C103.03 51.54 103.46 51.44 103.98 51.44C104.48 51.44 104.94 51.57 105.36 51.83C105.78 52.07 106.25 52.34 106.77 52.64C107.29 52.92 107.9 53.19 108.6 53.45C109.32 53.69 110.21 53.81 111.27 53.81C112.07 53.81 112.76 53.72 113.34 53.54C113.92 53.36 114.39 53.12 114.75 52.82C115.11 52.5 115.37 52.15 115.53 51.77C115.71 51.37 115.8 50.96 115.8 50.54C115.8 49.86 115.58 49.31 115.14 48.89C114.72 48.45 114.16 48.07 113.46 47.75C112.78 47.43 111.99 47.14 111.09 46.88C110.19 46.62 109.27 46.33 108.33 46.01C107.41 45.69 106.5 45.31 105.6 44.87C104.72 44.43 103.93 43.88 103.23 43.22C102.55 42.54 101.99 41.71 101.55 40.73C101.13 39.75 100.92 38.56 100.92 37.16C100.92 35.88 101.17 34.67 101.67 33.53C102.17 32.37 102.92 31.35 103.92 30.47C104.92 29.59 106.16 28.89 107.64 28.37C109.14 27.85 110.87 27.59 112.83 27.59C115.03 27.59 117.03 27.95 118.83 28.67C120.63 29.39 122.11 30.33 123.27 31.49L121.38 34.43ZM136.973 31.1C137.553 30.58 138.153 30.11 138.773 29.69C139.413 29.25 140.083 28.88 140.783 28.58C141.503 28.26 142.263 28.02 143.063 27.86C143.883 27.68 144.763 27.59 145.703 27.59C147.383 27.59 148.873 27.88 150.173 28.46C151.473 29.04 152.563 29.85 153.443 30.89C154.343 31.93 155.013 33.17 155.453 34.61C155.913 36.05 156.143 37.63 156.143 39.35V59H147.893V39.35C147.893 37.63 147.493 36.3 146.693 35.36C145.893 34.4 144.713 33.92 143.153 33.92C141.993 33.92 140.903 34.17 139.883 34.67C138.863 35.17 137.893 35.87 136.973 36.77V59H128.693V14.27H136.973V31.1Z" transform="translate(-3 -14)" fill="black"/>
</svg>
